<svg width="91" height="106" viewBox="0 0 91 106" fill="none" xmlns="http://www.w3.org/2000/svg">
<path d="M0.929993 27.881V81.751L42.898 105.786L90.285 77.761V23.891" fill="black"/>
<path d="M0.929993 27.881V81.751L42.898 105.786L90.285 77.761V23.891" fill="#FF9271"/>
<path d="M42.899 51.917V105.787L90.286 77.761V23.891L42.899 51.917Z" fill="#DF5C34"/>
<path d="M0.929993 27.88L49.624 0.125977L90.286 23.893L42.899 51.918L0.929993 27.88Z" fill="#F47B56"/>
<path d="M44.013 12.49C48.9502 12.1566 53.8797 13.2423 58.22 15.619C60.706 17.081 62.064 18.607 62.256 20.198C62.448 21.788 61.628 23.173 59.694 24.341C58.7766 24.9078 57.766 25.3073 56.709 25.521C55.84 25.726 54.949 25.816 54.057 25.79L53.083 25.713C53.174 25.93 53.234 26.159 53.263 26.393C53.2324 26.9466 53.0554 27.4822 52.75 27.945C52.2429 28.8053 51.5187 29.5173 50.65 30.01C48.6253 31.213 46.3047 31.826 43.95 31.78C41.5135 31.8455 39.1062 31.2375 36.993 30.023C34.994 28.843 33.97 27.457 33.893 25.867C33.9005 25.0248 34.1448 24.2017 34.5978 23.4918C35.0508 22.7818 35.6944 22.2136 36.455 21.852C37.1848 21.3968 37.9796 21.0553 38.812 20.839C39.4758 20.6473 40.1592 20.5312 40.849 20.493H41.554L40.272 19.723L43.872 17.479L52.212 22.391C52.8497 22.7343 53.5627 22.9141 54.287 22.9141C55.0113 22.9141 55.7243 22.7343 56.362 22.391C58.131 21.288 57.499 19.839 54.467 18.043C51.2447 16.2687 47.5816 15.4542 43.911 15.696C40.0205 15.7437 36.2147 16.838 32.893 18.864C29.87 20.754 28.371 23.007 28.397 25.624C28.397 28.188 29.998 30.472 33.111 32.306C36.5087 34.2063 40.3675 35.1254 44.257 34.961C48.1293 35.0242 51.9431 34.0116 55.274 32.036C56.4271 31.3527 57.4613 30.4864 58.336 29.471C58.9209 28.8496 59.3584 28.1045 59.616 27.291L59.796 26.483L64.549 26.752C64.557 26.897 64.557 27.042 64.549 27.188C64.4621 27.5806 64.3464 27.9663 64.203 28.342C63.9966 28.9449 63.7215 29.522 63.383 30.062C62.8949 30.7887 62.3281 31.4594 61.693 32.062C60.8552 32.8704 59.9313 33.5846 58.938 34.192C56.0779 35.9088 52.9099 37.0502 49.612 37.552C46.0182 38.1796 42.3487 38.2444 38.735 37.744C35.4501 37.3568 32.2753 36.3189 29.396 34.691C27.0711 33.46 25.2095 31.5065 24.092 29.125C23.6353 28.086 23.3995 26.9634 23.3995 25.8285C23.3995 24.6935 23.6353 23.571 24.092 22.532C25.199 20.1069 27.0414 18.092 29.358 16.773C33.772 14.06 38.8328 12.5806 44.013 12.489V12.49ZM48.676 25.752C48.506 24.861 47.906 24.112 47.075 23.751C46.0659 23.1563 44.9163 22.8418 43.745 22.84C42.6561 22.7987 41.5787 23.0749 40.644 23.635C40.2674 23.8188 39.9487 24.1027 39.7227 24.4557C39.4967 24.8086 39.3723 25.217 39.363 25.636C39.48 26.526 40.053 27.29 40.875 27.65C41.9072 28.2398 43.0805 28.5371 44.269 28.51C45.4117 28.5385 46.5393 28.245 47.523 27.663C47.8878 27.4959 48.196 27.2262 48.41 26.8869C48.624 26.5475 48.7345 26.1531 48.728 25.752" fill="#3E2928"/>
</svg>
